<svg version="1.1" id="Layer_1" xmlns="http://www.w3.org/2000/svg" xmlns:xlink="http://www.w3.org/1999/xlink" x="0px" y="0px"
	 width="100%" viewBox="0 0 190 190" enable-background="new 0 0 190 190" xml:space="preserve">
<path fill="#000000" opacity="1.000000" stroke="none" 
	d="
M116.000000,191.000000 
	C77.333336,191.000000 39.166672,191.000000 1.000005,191.000000 
	C1.000003,127.666672 1.000003,64.333344 1.000002,1.000014 
	C64.333321,1.000009 127.666649,1.000009 190.999969,1.000005 
	C190.999985,64.333321 190.999985,127.666634 191.000000,190.999969 
	C166.166672,191.000000 141.333328,191.000000 116.000000,191.000000 
M111.226067,24.126354 
	C95.120644,18.959236 79.403450,19.948448 64.417282,27.803745 
	C23.459394,49.272633 22.483107,103.659996 55.357178,129.002747 
	C69.765617,140.110275 86.089348,143.523987 103.014015,140.543427 
	C124.211586,136.810349 139.811020,124.277496 147.458694,103.557343 
	C149.784729,97.255325 151.481110,90.409370 151.800323,83.732903 
	C153.082214,56.921864 138.300827,35.330547 111.226067,24.126354 
z"/>
<path fill="#FDFDFD" opacity="1.000000" stroke="none" 
	d="
M111.600204,24.252974 
	C138.300827,35.330547 153.082214,56.921864 151.800323,83.732903 
	C151.481110,90.409370 149.784729,97.255325 147.458694,103.557343 
	C139.811020,124.277496 124.211586,136.810349 103.014015,140.543427 
	C86.089348,143.523987 69.765617,140.110275 55.357178,129.002747 
	C22.483107,103.659996 23.459394,49.272633 64.417282,27.803745 
	C79.403450,19.948448 95.120644,18.959236 111.600204,24.252974 
M59.313396,63.991310 
	C56.901642,67.322304 59.010994,73.906036 52.185600,73.606781 
	C52.185600,80.139549 52.185600,86.271393 52.185600,92.534447 
	C54.085289,92.775558 55.828785,92.996841 57.450871,93.202721 
	C65.175247,115.864029 87.790970,126.288277 106.995918,116.068268 
	C106.498451,115.046623 106.033249,113.996063 105.484955,112.990814 
	C104.883629,111.888351 104.205673,110.827690 103.613060,109.835777 
	C86.796646,115.361404 72.712494,109.748520 66.098068,94.445038 
	C64.062294,89.734978 63.245445,84.152046 63.400066,79.014847 
	C63.460300,77.013634 67.742744,75.144432 70.091347,73.202232 
	C70.474770,72.885155 70.840050,72.530983 71.150810,72.143501 
	C74.997116,67.347603 78.831741,62.542343 82.650620,57.762970 
	C91.899811,69.873322 104.074875,75.224182 119.619873,72.405663 
	C121.749275,78.667938 121.323067,84.870766 119.456116,91.022804 
	C118.254318,94.982986 116.117516,97.562187 111.264359,97.153992 
	C106.374626,96.742722 101.423325,97.063454 96.440834,97.063454 
	C96.440834,99.782005 96.440834,101.753479 96.440834,104.266396 
	C103.393417,105.124825 110.410065,107.129036 117.106895,106.357430 
	C120.672073,105.946655 123.694550,100.743599 126.939697,97.680023 
	C128.149643,96.537773 129.390884,95.405632 130.438095,94.122200 
	C131.124695,93.280724 131.905838,92.185905 131.929047,91.187904 
	C132.067413,85.236145 131.997498,79.279541 131.997498,72.923355 
	C127.156044,74.516762 127.064835,71.067245 126.230530,68.533699 
	C121.226639,53.338348 109.203308,43.293034 94.521538,42.086952 
	C80.304787,40.919067 67.057266,49.020065 59.313396,63.991310 
M78.373489,88.922424 
	C82.646866,90.345917 85.960602,88.596558 85.399498,84.893288 
	C85.149788,83.245163 83.704063,81.326653 82.248756,80.476219 
	C81.323456,79.935516 78.333603,80.822517 78.100525,81.610725 
	C77.485161,83.691788 77.867798,86.067955 78.373489,88.922424 
M106.981041,83.000648 
	C104.854042,79.438286 102.039589,78.954582 99.507935,82.146759 
	C98.570274,83.329063 98.603531,86.107170 99.357628,87.548828 
	C99.981209,88.740967 103.273102,90.000130 103.720749,89.555679 
	C105.252090,88.035271 106.050880,85.777031 106.981041,83.000648 
z"/>
<path fill="#060606" opacity="1.000000" stroke="none" 
	d="
M59.525002,63.674820 
	C67.057266,49.020065 80.304787,40.919067 94.521538,42.086952 
	C109.203308,43.293034 121.226639,53.338348 126.230530,68.533699 
	C127.064835,71.067245 127.156044,74.516762 131.997498,72.923355 
	C131.997498,79.279541 132.067413,85.236145 131.929047,91.187904 
	C131.905838,92.185905 131.124695,93.280724 130.438095,94.122200 
	C129.390884,95.405632 128.149643,96.537773 126.939697,97.680023 
	C123.694550,100.743599 120.672073,105.946655 117.106895,106.357430 
	C110.410065,107.129036 103.393417,105.124825 96.440834,104.266396 
	C96.440834,101.753479 96.440834,99.782005 96.440834,97.063454 
	C101.423325,97.063454 106.374626,96.742722 111.264359,97.153992 
	C116.117516,97.562187 118.254318,94.982986 119.456116,91.022804 
	C121.323067,84.870766 121.749275,78.667938 119.619873,72.405663 
	C104.074875,75.224182 91.899811,69.873322 82.650620,57.762970 
	C78.831741,62.542343 74.997116,67.347603 71.150810,72.143501 
	C70.840050,72.530983 70.474770,72.885155 70.091347,73.202232 
	C67.742744,75.144432 63.460300,77.013634 63.400066,79.014847 
	C63.245445,84.152046 64.062294,89.734978 66.098068,94.445038 
	C72.712494,109.748520 86.796646,115.361404 103.613060,109.835777 
	C104.205673,110.827690 104.883629,111.888351 105.484955,112.990814 
	C106.033249,113.996063 106.498451,115.046623 106.995918,116.068268 
	C87.790970,126.288277 65.175247,115.864029 57.450871,93.202721 
	C55.828785,92.996841 54.085289,92.775558 52.185600,92.534447 
	C52.185600,86.271393 52.185600,80.139549 52.185600,73.606781 
	C59.010994,73.906036 56.901642,67.322304 59.525002,63.674820 
z"/>
<path fill="#121212" opacity="1.000000" stroke="none" 
	d="
M78.113312,88.624535 
	C77.867798,86.067955 77.485161,83.691788 78.100525,81.610725 
	C78.333603,80.822517 81.323456,79.935516 82.248756,80.476219 
	C83.704063,81.326653 85.149788,83.245163 85.399498,84.893288 
	C85.960602,88.596558 82.646866,90.345917 78.113312,88.624535 
z"/>
<path fill="#121212" opacity="1.000000" stroke="none" 
	d="
M107.055061,83.400436 
	C106.050880,85.777031 105.252090,88.035271 103.720749,89.555679 
	C103.273102,90.000130 99.981209,88.740967 99.357628,87.548828 
	C98.603531,86.107170 98.570274,83.329063 99.507935,82.146759 
	C102.039589,78.954582 104.854042,79.438286 107.055061,83.400436 
z"/>
</svg>